<?xml version="1.0" encoding="UTF-8" standalone="no"?>
<!-- Created with Inkscape (http://www.inkscape.org/) -->
<svg
   xmlns:svg="http://www.w3.org/2000/svg"
   xmlns="http://www.w3.org/2000/svg"
   version="1.0"
   width="305.96301"
   height="368.40601"
   viewBox="0 0 305.963 368.406"
   id="Body"
   xml:space="preserve"><defs
   id="defs83" />
<g
   id="g3">
	<path
   d="M 79.251,39.305 C 12.344,71.502 57.391,120.596 79.181,110.17"
   style="fill:#ffffff;stroke:#000000;stroke-width:8.17140007;stroke-linecap:round"
   id="path5" />
	<path
   d="M 105.087,74.746 C 105.087,94.657 95.298,110.794 83.227,110.794 C 71.153,110.794 60.021,94.134 60.021,74.225 C 60.021,54.316 71.153,38.698 83.227,38.698 C 95.298,38.697 105.087,54.838 105.087,74.746 z "
   style="fill:#ffffff;stroke:#000000;stroke-width:8.17140007"
   id="path7" />
</g>
<path
   d="M 84.551,178.739 C 78.92,170.791 62.091,177.49 49.11,166.815 C 32.387,153.059 39.836,129.386 36.193,113.157 C 34.499,105.613 25.693,114.621 20.515,111.722 C 15.451,108.886 13.921,94.492 9.034,90.965 C -0.205,84.299 5.873,133.784 6.714,138.33 C 8.632,148.668 20.625,185.033 44.143,210.867 C 52.798,220.374 69.323,228.03 81.422,216.737 C 95.727,203.389 90.182,186.689 84.551,178.739 z "
   style="fill:#4d5259;stroke:#000000;stroke-width:7.94929981"
   id="Right_Hand_2_" />
<path
   d="M 238.457,202.697 C 230.951,176.201 175.525,156.107 174.864,114.372 C 174.502,91.706 176.066,48.043 148.145,34.988 C 122.642,23.064 75.348,28.37 70.64,67.778 C 65.824,108.09 109.335,130.831 84.329,166.706 C 31.994,241.783 27.802,385.312 206.667,330.511 C 248.383,311.283 256.868,267.68 238.457,202.697 z "
   style="fill:#4d5259;stroke:#000000;stroke-width:8.74419975"
   id="path10" />
<path
   d="M 53.223,271.8 C 57.218,320.536 92.847,357.607 183.532,336.739 C 207.562,115.509 64.678,121.769 53.223,271.8 z "
   style="fill:#ffffff;stroke:#000000;stroke-width:2.64980006"
   id="path12" />
<path
   d="M 202.193,82.908 C 337.338,169.472 332.085,353.074 220.796,250.613"
   style="fill:none;stroke:#000000;stroke-width:3.97469997;stroke-linecap:round"
   id="path14" />
<g
   id="iPod">
	<path
   d="M 209.313,258.013 C 210.578,262.281 207.796,266.887 203.141,268.262 L 138.933,287.166 C 134.278,288.539 129.443,286.171 128.187,281.909 L 99.642,184.988 C 98.386,180.725 101.17,176.117 105.824,174.744 L 170.033,155.834 C 174.685,154.464 179.521,156.832 180.773,161.097 L 209.313,258.013 z "
   style="fill:#ffffff;stroke:#000000;stroke-width:3.62899995"
   id="path17" />
	<path
   d="M 209.663,256.39 C 210.895,260.579 208.474,265.021 204.281,266.261 L 146.43,283.292 C 142.237,284.53 137.795,282.108 136.56,277.918 L 108.484,182.584 C 107.247,178.392 109.671,173.954 113.863,172.716 L 171.715,155.679 C 175.907,154.444 180.348,156.863 181.586,161.058 L 209.663,256.39 z "
   style="fill:#ffffff;stroke:#000000;stroke-width:1.99360001"
   id="path19" />
	<g
   id="g21">
		<path
   d="M 181.486,201.066 C 181.93,202.397 181.15,203.868 179.741,204.338 L 135.678,219.092 C 134.272,219.557 132.761,218.857 132.314,217.526 L 120.941,183.541 C 120.494,182.208 121.277,180.739 122.683,180.27 L 166.753,165.519 C 168.156,165.054 169.669,165.751 170.116,167.085 L 181.486,201.066 z "
   style="fill:#92daea;stroke:#000000;stroke-width:1.98730004"
   id="Screen" />
		<line
   fill="none"
   stroke="#000000"
   stroke-width="1.421"
   x1="134.769"
   y1="211.96001"
   x2="176.31599"
   y2="197.297"
   id="line24"
   style="fill:none;stroke:#000000;stroke-width:1.421" />
		<line
   fill="none"
   stroke="#000000"
   stroke-width="1.442"
   x1="126.205"
   y1="188.274"
   x2="168.431"
   y2="174.283"
   id="line26"
   style="fill:none;stroke:#000000;stroke-width:1.44200003" />
		<g
   id="g28">
			<path
   d="M 137.447,179.853 C 137.347,179.527 137.257,179.266 137.176,179.036 L 137.723,178.873 L 137.869,179.243 L 137.879,179.238 C 137.977,178.904 138.22,178.659 138.594,178.548 C 139.161,178.375 139.782,178.719 140.015,179.488 C 140.286,180.383 139.855,180.985 139.29,181.153 C 138.981,181.246 138.683,181.194 138.495,181.034 L 138.485,181.037 L 138.874,182.316 L 138.25,182.502 L 137.447,179.853 z M 138.256,180.279 C 138.275,180.339 138.297,180.393 138.329,180.445 C 138.467,180.679 138.746,180.794 139.01,180.714 C 139.404,180.595 139.538,180.194 139.39,179.706 C 139.259,179.271 138.936,178.979 138.537,179.103 C 138.277,179.178 138.096,179.439 138.12,179.728 C 138.119,179.791 138.125,179.847 138.141,179.896 L 138.256,180.279 z "
   id="path30" />
			<path
   d="M 143.101,178.56 C 143.376,179.467 142.859,180.067 142.231,180.261 C 141.531,180.473 140.848,180.15 140.608,179.362 C 140.361,178.55 140.744,177.893 141.488,177.666 C 142.224,177.441 142.873,177.808 143.101,178.56 z M 141.248,179.15 C 141.392,179.628 141.734,179.918 142.115,179.803 C 142.469,179.692 142.613,179.266 142.46,178.772 C 142.345,178.387 142.037,178 141.613,178.126 C 141.17,178.26 141.124,178.741 141.248,179.15 z "
   id="path32" />
			<path
   d="M 145.497,175.275 L 146.377,178.18 C 146.455,178.436 146.549,178.707 146.609,178.87 L 146.049,179.04 L 145.907,178.658 L 145.895,178.658 C 145.832,178.978 145.585,179.242 145.226,179.35 C 144.637,179.529 144.019,179.166 143.787,178.41 C 143.532,177.583 143.899,176.933 144.493,176.756 C 144.834,176.652 145.118,176.72 145.286,176.866 L 145.296,176.864 L 144.872,175.463 L 145.497,175.275 z M 145.528,177.625 C 145.512,177.576 145.489,177.514 145.464,177.47 C 145.333,177.242 145.076,177.103 144.792,177.189 C 144.393,177.313 144.276,177.737 144.416,178.197 C 144.553,178.646 144.876,178.913 145.273,178.789 C 145.525,178.714 145.697,178.474 145.676,178.186 C 145.675,178.126 145.66,178.065 145.64,177.998 L 145.528,177.625 z "
   id="path34" />
			<path
   d="M 147.168,178.309 L 147.736,176.838 C 147.817,176.65 147.886,176.497 147.974,176.317 L 147.972,176.303 L 146.771,176.668 L 146.619,176.171 L 148.582,175.574 L 148.699,175.957 L 148.14,177.392 C 148.065,177.58 147.993,177.756 147.905,177.924 L 147.907,177.935 L 149.21,177.539 L 149.362,178.035 L 147.278,178.668 L 147.168,178.309 z "
   id="path36" />
			<path
   d="M 149.748,174.468 C 149.805,174.655 149.714,174.843 149.495,174.907 C 149.286,174.971 149.105,174.866 149.045,174.679 C 148.988,174.486 149.087,174.297 149.293,174.232 C 149.508,174.168 149.684,174.277 149.748,174.468 z M 150.04,177.829 L 149.293,175.358 L 149.921,175.167 L 150.668,177.641 L 150.04,177.829 z "
   id="path38" />
			<path
   d="M 150.469,173.768 L 151.097,173.577 L 152.19,177.178 L 151.559,177.366 L 150.469,173.768 z "
   id="path40" />
			<path
   d="M 152.025,173.295 L 152.653,173.104 L 153.744,176.707 L 153.116,176.896 L 152.025,173.295 z "
   id="path42" />
			<path
   d="M 156.419,175.244 C 156.489,175.472 156.566,175.686 156.639,175.828 L 156.076,176.002 L 155.952,175.738 L 155.936,175.743 C 155.84,175.981 155.623,176.198 155.306,176.294 C 154.809,176.443 154.421,176.172 154.308,175.795 C 154.12,175.17 154.577,174.689 155.487,174.417 L 155.476,174.376 C 155.424,174.213 155.28,173.968 154.843,174.097 C 154.6,174.172 154.369,174.325 154.233,174.482 L 153.988,174.113 C 154.14,173.948 154.427,173.743 154.817,173.625 C 155.608,173.387 155.986,173.818 156.148,174.354 L 156.419,175.244 z M 155.628,174.818 C 155.182,174.942 154.791,175.164 154.904,175.542 C 154.979,175.784 155.168,175.85 155.367,175.79 C 155.615,175.712 155.747,175.495 155.752,175.301 C 155.752,175.247 155.742,175.198 155.731,175.156 L 155.628,174.818 z "
   id="path44" />
		</g>
	</g>
	<g
   id="Click_Wheel">
		<path
   d="M 188.204,235.071 C 192.759,248.29 187.134,262.214 175.635,266.181 C 164.135,270.149 151.115,262.653 146.56,249.44 C 142.002,236.221 147.634,222.294 159.133,218.33 C 170.63,214.359 183.647,221.86 188.204,235.071 z "
   style="fill:#ffffff;stroke:#000000;stroke-width:2.64980006"
   id="path47" />
		<path
   d="M 190.99,234.815 C 195.306,247.34 189.974,260.544 179.08,264.302 C 168.18,268.063 155.84,260.957 151.518,248.434 C 147.198,235.906 152.534,222.703 163.434,218.942 C 174.332,215.186 186.672,222.292 190.99,234.815 z "
   style="fill:#ffffff;stroke:#000000;stroke-width:2.64980006"
   id="path49" />
		<path
   d="M 178.702,241.354 C 179.945,244.96 178.41,248.76 175.275,249.84 C 172.144,250.923 168.587,248.878 167.344,245.276 C 166.101,241.668 167.644,237.871 170.775,236.785 C 173.913,235.707 177.459,237.753 178.702,241.354 z "
   id="path51" />
	</g>
</g>
<path
   d="M 185.02,172.886 C 187.941,191.871 198.27,205.126 200.038,217.934 C 202.824,238.134 175.746,254.585 159.408,246.635 C 135.405,234.959 109.527,243.965 116.129,255.47 C 129.382,278.567 189.616,273.982 207.544,264.304 C 251.708,240.457 251.103,155.313 211.08,149.918 C 188.111,146.827 181.489,149.923 185.02,172.886 z "
   style="fill:#4d5259;stroke:#000000;stroke-width:7.94929981"
   id="Left_Hand_2_" />
<path
   d="M 178.397,258.564 C 180.384,243.107 175.686,237.78 174.179,239.954 C 158.65,262.336 146.401,290.636 145.22,316.018 C 143.949,343.357 155.873,363.231 175.747,364.999 C 217.54,368.713 206.883,260.769 206.219,250.612 C 206.101,248.782 201.967,250.612 197.773,259.886 C 195.788,263.862 194.275,264.588 194.296,262.978 C 194.461,250.723 192.804,243.99 191.647,243.768 C 190.486,243.545 184.019,251.302 181.046,259.224 C 180.385,260.994 178.178,260.994 178.397,258.564 z "
   style="fill:#efd67f;stroke:#000000;stroke-width:6.62440014"
   id="Left_Foot_2_" />
<path
   d="M 46.682,252.27 C 45.577,254.808 43.921,253.596 43.592,251.055 C 43.7,241.45 39.063,233.721 37.738,234.272 C 35.089,236.151 35.195,245.004 33.543,253.596 C 32.99,256.467 31.613,256.858 31.445,255.58 C 30.119,245.536 24.694,241.587 24.048,241.889 C 19.69,243.934 18.97,281.084 20.735,293.011 C 24.267,316.858 32.197,346.536 46.629,343.512 C 60.04,340.705 66.664,334.744 70.512,327.967 C 85.369,301.799 61.882,244.58 52.752,239.351 C 51.982,238.91 48.414,248.29 46.682,252.27 z "
   style="fill:#efd67f;stroke:#000000;stroke-width:6.62440014"
   id="Right_Foot_2_" />
<g
   id="Right_Eye_2_">
	<path
   d="M 112.789,74.523 C 92.413,70.95 81.27,78.429 76.5,94.338 C 80.102,100.44 86.724,104.544 94.323,104.544 C 105.754,104.544 115.023,95.275 115.023,83.844 C 115.023,80.488 114.208,77.327 112.789,74.523 z "
   style="fill:#ffffff;stroke:#000000;stroke-width:2.44320011;stroke-linecap:round"
   id="path57" />
	<circle
   cx="88.484001"
   cy="82.408997"
   r="6.3699999"
   id="circle59" />
	<path
   d="M 112.789,74.523 C 109.377,67.778 102.398,63.142 94.323,63.142 C 82.888,63.142 73.62,72.408 73.62,83.843 C 73.62,87.676 74.681,91.256 76.499,94.337 C 81.27,78.429 92.413,70.95 112.789,74.523 z "
   style="fill:#b0b7b9;stroke:#000000;stroke-width:2.44320011;stroke-linecap:round"
   id="path61" />
</g>
<g
   id="Left_Eye_2_">
	<path
   d="M 110.496,74.875 C 110.429,75.593 110.386,76.317 110.386,77.052 C 110.386,89.859 120.766,100.239 133.572,100.239 C 144.696,100.239 153.98,92.402 156.231,81.95 C 144.166,60.499 120.496,63.309 110.496,74.875 z "
   style="fill:#ffffff;stroke:#000000;stroke-width:2.54089999;stroke-linecap:round"
   id="path64" />
	<path
   d="M 137.026,73.502 C 137.026,77.433 133.838,80.62 129.906,80.62 C 125.973,80.62 122.785,77.433 122.785,73.502 C 122.785,69.568 125.973,66.379 129.906,66.379 C 133.837,66.38 137.026,69.568 137.026,73.502 z "
   id="path66" />
	<path
   d="M 133.571,53.869 C 121.503,53.869 111.595,63.094 110.495,74.875 C 120.495,63.309 144.165,60.499 156.23,81.951 C 156.569,80.371 156.757,78.736 156.757,77.053 C 156.758,64.25 146.377,53.869 133.571,53.869 z "
   style="fill:#b0b7b9;stroke:#000000;stroke-width:2.54089999;stroke-linecap:round"
   id="path68" />
</g>
<g
   id="Beaker_2_">
	
		<path
   d="M 78.589,132.699 C 85.545,27.039 208.758,132.699 78.589,132.699"
   style="fill:#efd67f;fill-rule:evenodd;stroke:#000000;stroke-width:2.94779992;stroke-linecap:round"
   id="Peak_2_" />
	<path
   d="M 136.562,101.636 C 127.94,113.819 110.386,124.418 78.589,132.699"
   style="fill:none;stroke:#000000;stroke-width:2.64980006;stroke-linecap:round"
   id="path72" />
</g>
<path
   d="M 75.94,39.305 C 81.239,2.86 135.228,-17.344 171.228,28.504 L 167.191,31.337 C 125.036,-3.764 88.526,14.121 79.252,39.305 L 75.94,39.305 L 75.94,39.305 z "
   style="fill:#b0b7b9;stroke:#000000;stroke-width:3.97469997"
   id="path74" />
<g
   id="g76">
	<path
   d="M 209.136,63.057 C 211.782,83.549 196.564,100.452 181.06,100.452 C 165.544,100.452 152.974,83.711 152.974,63.057 C 152.974,42.402 165.642,26.113 181.06,27.811 C 196.563,29.52 206.709,44.262 209.136,63.057 z "
   style="fill:#ffffff;stroke:#000000;stroke-width:7.94929981"
   id="path78" />
	<path
   d="M 205.972,50.045 C 175.736,-0.253 150.134,89.861 197.005,94.383"
   style="fill:none;stroke:#000000;stroke-width:7.94929981;stroke-linecap:round"
   id="path80" />
</g>
</svg>